Coordinates
version=1
nRows=9
nColumns=36
inDegrees=yes

Units are S.I. units (second, meters, Newtons, ...)
If the header above contains a line with 'inDegrees', this indicates whether rotational values are in degrees (yes) or radians (no).

endheader
time	pelvis_tilt	pelvis_list	pelvis_rotation	pelvis_tx	pelvis_ty	pelvis_tz	hip_flexion_r	hip_adduction_r	hip_rotation_r	knee_angle_r	knee_angle_r_beta	ankle_angle_r	subtalar_angle_r	mtp_angle_r	hip_flexion_l	hip_adduction_l	hip_rotation_l	knee_angle_l	knee_angle_l_beta	ankle_angle_l	subtalar_angle_l	mtp_angle_l	lumbar_extension	lumbar_bending	lumbar_rotation	arm_flex_r	arm_add_r	arm_rot_r	elbow_flex_r	pro_sup_r	arm_flex_l	arm_add_l	arm_rot_l	elbow_flex_l	pro_sup_l
      1.87000000	    -27.73163864	     -4.12961801	     -0.94441537	     -0.22866323	      0.67162602	     -0.61585910	     83.29072714	     -3.23916371	     -0.08470908	     90.79920645	      1.58474511	     17.93713136	    -11.23447847	     -7.40204174	     85.79326284	     -1.41567776	     10.24021507	     91.77231582	      1.60172907	     20.76053241	    -15.91734860	     -7.40204174	    -39.44209070	      2.72406434	      0.49210950	     59.55996312	    -17.64739867	     13.54874543	     71.93331802	    101.55692073	     71.82830911	    -21.22965729	     22.87218877	     77.58983572	     93.81265853
      1.88000000	    -27.00949314	     -4.00263273	     -0.84849312	     -0.22618302	      0.67838652	     -0.61573458	     81.55479172	     -3.09981694	     -0.06891183	     89.71566842	      1.56583380	     18.03391946	    -11.61844715	     -7.40316248	     84.12185919	     -1.36476500	     10.08382771	     90.76227761	      1.58410058	     20.52566356	    -16.09656706	     -7.40316248	    -38.76708905	      2.78355955	      0.18660181	     61.10157371	    -18.40260281	     13.76316354	     76.67003716	    101.85129439	     74.50013082	    -22.07731960	     23.67514011	     81.14524682	     94.11603295
      1.89000000	    -26.31941950	     -3.84498898	     -0.77491786	     -0.22371664	      0.68556757	     -0.61544117	     79.86561225	     -2.94136838	     -0.00467038	     88.57637834	      1.54594944	     17.94991182	    -12.11850355	     -7.40504965	     82.43881170	     -1.32783018	      9.90029167	     89.65749894	      1.56481856	     20.12649723	    -16.43857694	     -7.40504965	    -37.99959994	      2.74572460	      0.10689101	     62.78065325	    -19.64254882	     13.95633927	     81.91315237	    101.98637028	     77.71529999	    -22.90960563	     25.12278480	     84.61857136	     94.19702248
      1.90000000	    -25.51044444	     -3.67586746	     -0.65939795	     -0.22118855	      0.69368727	     -0.61514994	     77.95662087	     -2.81540405	      0.09267697	     87.26810640	      1.52311579	     17.72502736	    -12.36728976	     -7.40622005	     80.56798966	     -1.25782150	      9.70641867	     88.38902329	      1.54267948	     19.56700215	    -16.46971366	     -7.40622005	    -37.24824303	      2.69605660	     -0.15018601	     65.06008151	    -21.06642306	     14.43578510	     86.74031880	    102.13110661	     81.21363611	    -24.02716572	     26.27604363	     87.68636293	     94.29804291
      1.91000000	    -24.93161717	     -3.39189488	     -0.64784707	     -0.21885930	      0.70186369	     -0.61469671	     76.35375618	     -2.64766442	      0.25325137	     85.87446207	      1.49879211	     16.29086590	    -14.26395443	     -7.43218387	     78.91132512	     -1.14499510	      9.44698024	     87.01932020	      1.51877365	     18.29588950	    -17.69262320	     -7.43218387	    -36.17015160	      2.37566605	     -0.27238093	     67.54503522	    -22.98511914	     14.98100319	     92.06796882	     98.10807286	     85.55536267	    -25.27845864	     28.70992466	     91.06017641	     87.63717002
      1.92000000	    -24.23892357	     -3.15722723	     -0.67176674	     -0.21614694	      0.71108328	     -0.61443508	     74.41853665	     -2.45760310	      0.49936501	     84.23837070	      1.47023693	     16.06313606	    -14.14762654	     -7.43296439	     77.04230885	     -1.10830951	      9.26400237	     85.55331671	      1.49318706	     17.48769368	    -17.44948714	     -7.43296439	    -35.15134963	      2.20159681	     -0.60649387	     70.69500148	    -24.60004869	     15.44826367	     96.31764885	     98.37302989	     89.46617535	    -26.25606022	     29.14621411	     93.91394126	     87.93765438
      1.93000000	    -23.62581349	     -2.83724013	     -0.76038918	     -0.21348546	      0.72079316	     -0.61398331	     72.53900142	     -2.25301413	      0.74041681	     82.45766945	      1.43915783	     15.12170423	    -15.10086940	     -7.43730059	     75.28933559	     -1.15074808	      8.81477966	     83.99639783	      1.46601370	     15.58697392	    -18.78200800	     -7.43730059	    -34.03124389	      1.75277993	     -0.83699289	     74.23919489	    -26.62070355	     15.86572731	    100.41446259	     98.25283979	     94.42911331	    -27.37091274	     31.20380733	     95.95617555	     88.08726154
      1.94000000	    -22.96808294	     -2.61806927	     -0.90153908	     -0.21057173	      0.73141711	     -0.61362084	     70.42964167	     -2.01851020	      0.94604003	     80.41324648	      1.40347591	     14.56767456	    -15.21571658	     -7.43859044	     73.43674150	     -1.29182894	      8.51913452	     82.39471149	      1.43805900	     14.43805480	    -18.65199337	     -7.43859044	    -32.93327507	      1.51704609	     -1.03116883	     78.51212126	    -28.50835153	     16.61257241	    103.94185771	     98.38435955	     99.26535673	    -28.70476790	     32.75403104	     97.92267582	     88.34552057
      1.95000000	    -22.32766818	     -2.35823864	     -1.14519439	     -0.20759078	      0.74286800	     -0.61305901	     68.31756392	     -1.80247078	      1.11905998	     78.21165177	      1.36505084	     13.46711021	    -15.67520102	     -7.44060029	     71.46964513	     -1.49752577	      8.14111942	     80.51766705	      1.40529840	     12.60216125	    -19.15462062	     -7.44060029	    -31.76987452	      1.21054862	     -1.33953345	     83.23720038	    -29.93169573	     17.53276247	    106.72210020	     98.31505755	    104.52228280	    -30.26912113	     34.81026870	     99.30160506	     88.44246948
